# xmcd CD database file
#
# Track frame offsets:
#	150
#	16710
#	36392
#	50977
#	66767
#	82787
#	101927
#	114025
#	128522
#	141687
#	155407
#	168827
#
# Disc length: 2391 seconds
#
# Revision: 0
# Processed by: cddbd v1.5.2PL0 Copyright (c) Steve Scherf et al.
# Submitted via: CDex 1.51
#
DISCID=9a09550c
DTITLE=Almir Sater - Coletanea - Volume III
DYEAR=2008
DGENRE=Country
TTITLE0=Boiada
TTITLE1=Rio de Lágrimas
TTITLE2=Varandas
TTITLE3=Tristeza do Jeca
TTITLE4=Missões Naturais
TTITLE5=Moda apaixonada
TTITLE6=Capim de Ribanceira
TTITLE7=Viola fora de moda
TTITLE8=Semente
TTITLE9=Mais um verão
TTITLE10=Flor do Amor
TTITLE11=Velhos Amigos
EXTD=YEAR: 2008
EXTT0=
EXTT1=
EXTT2=
EXTT3=
EXTT4=
EXTT5=
EXTT6=
EXTT7=
EXTT8=
EXTT9=
EXTT10=
EXTT11=
PLAYORDER=
